<svg version="1.1" xmlns="http://www.w3.org/2000/svg" viewBox="0 0 1038 656.5" width="1038" height="656.5">
  <!-- svg-source:excalidraw -->
  
  <defs>
    <style>
      @font-face {
        font-family: "Virgil";
        src: url("https://excalidraw.com/Virgil.woff2");
      }
      @font-face {
        font-family: "Cascadia";
        src: url("https://excalidraw.com/Cascadia.woff2");
      }
    </style>
  </defs>
  <rect x="0" y="0" width="1038" height="656.5" fill="#ffffff"></rect><g stroke-linecap="round" transform="translate(430 279) rotate(0 51 52)"><path d="M0 0 C0 0, 0 0, 0 0 M0 0 C0 0, 0 0, 0 0 M-1.18 5.04 C2.42 5.5, 3.35 4.79, 6.21 1.07 M0.46 5.65 C0.71 3.59, 2.94 1.92, 5.07 0.36 M-1.23 11.27 C2.62 8.14, 10.36 3.15, 11.94 2.8 M-1.41 12.44 C4.69 6.91, 9.25 2.55, 11 -1.42 M0.5 15.85 C4.18 15.16, 11.16 9.44, 13.73 1.41 M-1.08 18.54 C1.97 12.75, 8.94 8.35, 14.01 0.71 M-1 26.62 C5.61 19.44, 11.06 8.51, 17.63 -2.06 M-1.6 23.01 C5.39 19.08, 10.47 14.34, 23.19 -0.55 M-3.56 31.55 C9.4 23.54, 12.14 17.14, 24.58 -2.22 M1.83 30.59 C9.58 17.95, 21.89 9.38, 26.17 0.4 M1.33 34.12 C6.42 28.86, 15.56 18.69, 30.1 -4.08 M-1.78 37.95 C11.58 25.84, 20.04 12.13, 30.92 -1.12 M-3.51 41.14 C12.98 26.67, 26.3 12.66, 37.63 1.46 M-0.56 41.13 C12.36 29.04, 22.64 13.83, 37.45 -1.23 M3.3 50.78 C11.27 38.57, 16.14 26.05, 42.04 1.33 M-1.01 46.95 C14.56 32.03, 25.51 18.49, 43.92 -0.46 M0.55 57.01 C14.03 43.28, 27.93 25.4, 50.59 0.05 M1.6 52.89 C19.49 31.91, 37.63 13.63, 46.3 -0.53 M1.45 57.44 C9.14 47.26, 22.17 31.26, 50.47 -0.54 M-1.24 62.18 C8.61 49.25, 21.26 33.78, 52.47 -1.28 M-3.55 65.72 C23.73 36.92, 48.2 10.55, 61.76 -1.48 M-1.78 67.7 C18.97 43.69, 38.61 19.87, 57.86 -1.53 M1.58 75.58 C16.61 56.37, 36.01 33.26, 65 -3.03 M-1.08 71.34 C13.26 57.73, 27.46 40.28, 63.56 0.05 M2.64 80.89 C19.61 62, 29.83 44.71, 70.09 3.19 M1.84 79.42 C21.1 53.76, 46.31 27.22, 67.96 0.06 M2.14 88.04 C16.27 62.82, 37.83 38.75, 75.89 -2.13 M-0.47 86.48 C21.69 61.29, 41.47 39.06, 72.86 1.48 M0.22 91.81 C14.37 75.92, 31.29 50.92, 83.14 -2.2 M-0.29 90.49 C31.75 56.86, 62.28 22.65, 79.12 0.83 M1.54 95.78 C19.3 78.17, 34.08 55.14, 86.01 3.58 M-1.28 96.69 C29.33 61.34, 57.32 24.56, 84.73 -0.74 M-0.45 100.39 C22.43 77.11, 43.93 49.78, 93.09 -0.57 M0.45 104.93 C21.63 76.24, 42.65 47.5, 88.52 1.69 M4.05 103.13 C34.44 66.46, 69.59 22.33, 94.87 -3.12 M2.53 105.34 C18.23 86.04, 38.54 64.29, 96.21 -0.05 M7.52 104.85 C28.45 78.19, 54.57 52.59, 100.77 2.56 M9.23 107.98 C27.86 81.69, 47.66 58.01, 100.07 -0.14 M12.63 110.01 C33.33 83.28, 54.67 55.68, 104.63 0.18 M13.71 106.4 C38.95 76.96, 67.39 46.14, 103.07 2.68 M22.49 107.88 C36.55 91.09, 53.77 67.7, 100.39 11.31 M18.78 106.3 C38.89 82.68, 59.05 58.88, 105.13 9.17 M22.29 103.58 C48.3 78.96, 67.68 59.52, 101.48 14.56 M25.2 107.92 C54.48 72.06, 82.67 36.78, 105.17 14.2 M26.11 106.54 C50.98 85.59, 65.62 58, 105.96 18.39 M29.15 105.86 C46.71 82.86, 68.65 63.57, 104.89 18.94 M33.96 106.29 C48.97 85.83, 61.68 68.86, 107.32 29.11 M33.85 108.27 C58.79 78.92, 80.95 53.97, 106.14 26.19 M39.25 108.21 C62.06 80.82, 80.06 59.55, 107.45 34.61 M39.7 107.91 C56.07 86.22, 69.33 68.06, 102.59 31.55 M41.81 109.25 C64.42 91.51, 78.31 71.82, 107.5 40.87 M43.87 105.35 C63.47 81.31, 88.03 58.04, 105.13 39.23 M47.4 109.69 C59.55 97.98, 75.11 81.72, 108.17 43.94 M50.46 108.01 C70.87 81.81, 91.97 61.85, 104.86 45.47 M56.67 104.92 C67.64 93.21, 74.41 82.62, 101.96 49.98 M54.13 105.37 C73.43 83.78, 94.39 60.9, 103.93 49.92 M64.7 105.13 C68.26 92.89, 82.7 85.08, 104.06 55.72 M62.19 108.03 C73.24 94.18, 81.16 82.33, 105.04 55.48 M65.98 103.14 C77.07 93.8, 96.39 81.32, 101.29 64.23 M66.23 106.87 C73.74 97.03, 82.51 85.7, 103.06 63.47 M69.9 110.06 C82.97 98.13, 94.47 81.64, 107.02 65.42 M72.29 108.17 C81.1 95.28, 89.44 88.5, 102.49 69.44 M73.79 107.12 C81.59 100.82, 91.48 86.15, 105.38 72.02 M76.43 104.7 C83.13 98.42, 88.99 89.83, 104.37 74.62 M86.37 105.38 C90.19 97.38, 93.87 89.93, 107.57 83.62 M82.88 106.92 C89.89 99.53, 95.32 93.17, 105.21 81.24 M84.8 105.47 C94.9 101.16, 99.89 94.94, 102.06 83.88 M87.67 106.02 C90.78 102.37, 96.12 96.52, 105.76 89.19 M93.98 108.89 C96.51 106.43, 99.21 97.23, 103.08 92.67 M92.81 105.26 C96.57 102.64, 98.98 97.75, 105.7 91.66 M97.34 105.46 C101.76 104.27, 100.51 102.35, 103.05 98.72 M97.92 106.43 C99.56 104.26, 102.54 101.36, 103.94 100.34" stroke="#15aabf" stroke-width="0.5" fill="none"></path><path d="M-2.43 1.64 C25.69 -0.51, 45.38 -1.97, 101.09 -3.55 M102.33 -0.04 C98.16 40.69, 102.05 75.89, 105.01 107.93 M99.03 101.01 C76.74 108.8, 53.09 101.37, 0.69 102.73 M3.21 104.12 C2.95 66.49, 0.57 22.49, 0.63 -0.2" stroke="#000000" stroke-width="1.5" fill="none" stroke-dasharray="8 9"></path></g><g transform="translate(435 318.5) rotate(0 46 12.5)"><text x="46" y="18" font-family="Virgil, Segoe UI Emoji" font-size="20px" fill="#000000" text-anchor="middle" style="white-space: pre;" direction="ltr">backmon</text></g><g stroke-linecap="round" transform="translate(719 10) rotate(0 153 131.5)"><path d="M46.13 36.13 C46.13 36.13, 46.13 36.13, 46.13 36.13 M46.13 36.13 C46.13 36.13, 46.13 36.13, 46.13 36.13 M19.98 67.34 C28.75 54.24, 39.52 45.62, 59.31 29.98 M19.69 72.82 C31.83 58.48, 45.65 45.62, 55.08 30.16 M16.96 80.42 C34.78 58.52, 55.14 35.84, 64.39 26.73 M14.76 82.79 C30.43 65.42, 42.89 51.64, 67.06 26.43 M9.87 97.28 C27.41 77.77, 39.61 57.38, 74.09 21.31 M12.49 94.46 C26.15 74.83, 40.85 56.78, 75.54 20.79 M0.12 106.59 C19.92 86.87, 41.18 72.61, 87.78 14.39 M3.84 110.44 C24.55 86.34, 43.78 61.84, 86.8 13.49 M2.19 115.23 C18.72 94.85, 39.9 74.45, 90.51 19.75 M2.75 118.11 C30.79 82.31, 63 45.44, 90.43 14.86 M1.07 120.33 C32.96 92.23, 62.13 51.8, 94.19 15.67 M2.4 121.03 C26.12 99.54, 46.25 73.58, 95.14 15.99 M0.09 133.04 C33.8 98.84, 56.79 62.83, 106.27 8.1 M1.48 130.08 C42.87 84.08, 79.34 39.49, 104.08 11.35 M-0.72 133.33 C30.42 101.92, 59.88 74.92, 111.16 11.54 M1.3 133.67 C44.72 88.09, 80.44 43.14, 110.82 11.03 M2.97 138.79 C23.74 114.69, 50.5 88.41, 121.77 9.33 M3.97 141.87 C27.13 110.64, 54.48 80.39, 117.59 8.37 M2.01 145.82 C49.06 98.6, 96.18 45.1, 123.79 5.65 M1.25 146.98 C39.7 101.96, 79.16 60.22, 126.16 3.37 M7 148.5 C47.15 105.57, 84.74 62.96, 134.09 3.02 M2.85 153.3 C41.46 105.52, 79.6 64.08, 134.75 -0.1 M6.22 153.71 C42.23 115.55, 83.4 67.09, 140.4 3.73 M6.66 157.7 C34.89 123.85, 61.68 87.89, 140.74 1.11 M5.83 159.08 C37.04 128.18, 66.94 91.41, 144.16 1.44 M6.37 160.04 C43.53 120.87, 76.4 81.5, 145.35 2.1 M11.16 167.97 C44.17 135.06, 72.3 94.19, 148.44 3.99 M7.13 163.21 C40.93 128.02, 70.01 93.01, 149.33 0.88 M10.51 167.16 C57 114.26, 100.11 63.99, 154.31 -1.64 M11.15 167.65 C62.46 112.33, 114.47 54, 154.81 1.47 M10.79 171.74 C47.16 136.06, 81.24 97.32, 159.81 3.46 M10.37 173.92 C52.66 127.24, 93.88 79.72, 159.59 3.29 M14.11 174.79 C56.52 124.54, 105.77 74.22, 166.93 4.48 M14.09 177.26 C62.78 123.07, 110.45 68.1, 166.39 1.11 M15.95 181.12 C53.8 135.33, 88.9 90.65, 174.64 -1.43 M14.78 183.3 C66.5 122.83, 123.13 60.39, 171.31 1.9 M16.63 185.41 C58.5 141.37, 92.65 97.04, 178.73 3.6 M15.43 185.64 C52.35 145.69, 85.63 106.15, 176 0.08 M16.28 187.18 C80.79 116.73, 140.69 45.67, 181.87 -0.89 M19.87 190.31 C57.67 145.84, 93.73 104.32, 183 1.38 M21.27 194.23 C65.46 136.43, 116.4 79.32, 185.85 2.89 M21.86 192.32 C52.76 154.44, 84.21 116.2, 187.22 2.55 M21.95 195.68 C58.88 158.49, 93.1 117.88, 192.94 7.17 M24.16 197.42 C74.73 133.72, 125.16 72.33, 189.26 3.04 M26.38 196.88 C93.05 119.69, 155.19 49.68, 192.81 8.7 M25.49 200.91 C85.83 127.6, 148.5 57.26, 193.96 4.83 M30.36 200.38 C90.15 130.95, 148.48 61.56, 199.95 6.32 M28.36 204.03 C67.39 159.59, 103.38 114.27, 198.25 6.32 M29.61 204 C95.65 132.97, 162.08 60.85, 199.97 6.8 M30.77 204.99 C81.87 144.75, 135.21 86.41, 204.09 7.79 M31.85 210.58 C74.64 157.69, 116.57 110.24, 205.4 10.33 M33.97 208.14 C98.39 130.91, 168.84 52.23, 205.73 9.29 M36.72 213.29 C72.54 170.13, 108.06 134.77, 211.98 12.83 M34.28 211.9 C96.07 141.61, 157.32 74.02, 212.09 9.11 M39.08 214.51 C95.91 147.77, 155.05 79.59, 212.75 14.49 M37.67 214.55 C91.03 157.05, 138.35 100.99, 214.99 11.73 M40.71 217.57 C84.27 173.47, 125.86 126.34, 221.25 11.69 M42.07 218.16 C97.97 153.3, 151 93.54, 221 13.07 M43.42 223.53 C110.83 145.28, 174.45 66.8, 225.29 15.47 M42.05 221.74 C101.45 156.16, 159.54 88.07, 222.99 15.37 M48.84 222.48 C97.04 166.14, 145.52 110.43, 228.45 19.32 M46.24 224.43 C109.27 156.34, 168.71 87.17, 227.81 16.39 M47.13 226.67 C98.23 170.22, 146.94 112.07, 233.55 18.7 M49.34 227.1 C90.62 181.03, 130.61 134.96, 229.59 18.9 M55.25 229.2 C119.91 156.2, 177.35 87.3, 232.75 23.8 M53.88 227.8 C105.86 166.98, 160.45 104.31, 232.8 21.44 M53.84 232.57 C90.31 190.17, 129.01 146.69, 237 21.45 M55.59 231.22 C104.48 176.27, 155.76 120.22, 237.3 22.99 M61.25 233.76 C123.14 162.52, 185.27 89.65, 242.55 23.69 M60.67 233.27 C123.94 156.26, 190.49 80.28, 240.91 24.7 M65.34 233.99 C97.92 193.1, 139.18 149.88, 247.08 29.69 M62.85 236.58 C130.5 159.46, 195.43 82.06, 245.23 28.43 M66.18 241.76 C127.09 167.2, 191.85 101.32, 246.88 32.49 M66.55 237.58 C109.78 182.8, 155.64 131.83, 248.57 30.59 M69.66 239.37 C124.35 173.1, 186.34 108.1, 249.89 32.75 M70.17 241.97 C118.03 186.13, 162.32 132.82, 251.9 32.42 M74.92 242.16 C128.61 178.76, 186.67 119.16, 253.81 33.87 M74 243.17 C135.43 170.4, 199.92 97, 254.29 34.51 M73.83 245.88 C112.23 200.21, 148.97 157.31, 259.12 37.21 M75.62 246.44 C120.85 193, 168.39 135.89, 258.79 34.74 M81.61 248.87 C147.94 171.87, 217.05 92.79, 259.52 37.24 M77.85 247.29 C148.48 167.2, 217.73 88.07, 261.75 38.26 M81.77 248.72 C115.81 209.87, 153.47 163.82, 267.35 41.46 M81.95 249.34 C150.09 171.03, 216.97 97.8, 264.84 40.01 M85.92 252.98 C122.01 205.32, 158.69 163.23, 266.22 41.51 M87.8 249.77 C123.05 210.33, 158.12 168.93, 266.79 44.66 M89.76 252.59 C132.94 204.95, 175.53 153.32, 268.73 50.32 M92.01 252.54 C145.28 187.53, 198.4 123.18, 270.63 47.65 M95.3 251.93 C161.59 175.16, 233.7 98.48, 271.03 52.11 M96.68 254.54 C159.02 182.9, 224.16 111.05, 271.04 49.8 M99.49 252.36 C154.92 192.43, 206.9 132.07, 271.74 55.03 M100.15 253.42 C150.67 193.89, 205.45 131.69, 275.66 53.58 M102.2 253.58 C144.33 207.56, 182.53 166.63, 277.85 56.82 M103.95 254.83 C159.04 190.27, 215.84 127.66, 278.32 56.23 M108.15 254.94 C151.51 206.34, 191.86 163.61, 278.49 61.82 M110.37 257.54 C171.97 189.09, 229.96 117.71, 279.1 60.03 M115.97 256.86 C150.3 215.92, 184.16 175.23, 279.71 61.71 M113.53 257.45 C159.46 202.32, 209.62 146.9, 283.26 62.14 M119.82 255.77 C161.92 205.08, 204.19 157.89, 284.7 65.5 M119.29 258.01 C162.29 204.6, 208.05 150.56, 286.57 64.87 M124.15 258.49 C181.49 196.57, 233.13 134.07, 286.62 70.82 M123.53 258.43 C176.98 194.61, 233.71 127.45, 286.23 68.95 M125.51 258.48 C167.13 209.24, 217.96 157.49, 286.97 74.67 M124.97 261.71 C178.27 205.04, 225.3 147.5, 288.74 74.14 M130.66 259.46 C178.37 207.18, 229.9 153.48, 292.54 73.29 M129.3 262.07 C179.52 204.85, 232.09 145.61, 292.51 75.36 M132.86 264.18 C164.78 227.26, 201.54 188.2, 294.21 80.61 M134.18 262.39 C179.27 209.83, 225.81 157.23, 294.97 80.48 M138.08 263.78 C201.59 192.55, 265.4 121.24, 294.32 83.44 M141.13 263.34 C197.37 196.73, 250.58 137.12, 295.9 84.83 M145.74 260.52 C203.95 194.45, 259.31 127.18, 296.89 88.41 M144.87 262.49 C193.48 212.61, 241.01 159.1, 296.25 87.88 M150.4 263.03 C180.63 231.45, 212.48 194.12, 300.03 92.56 M150.86 261.92 C194.27 214.38, 236.74 165.96, 299.6 93.23 M157.21 260.51 C192.18 221.44, 229.32 188.33, 300.41 95.8 M155.85 262.52 C188.83 225.67, 222.41 188, 302.03 97.12 M163.47 265.11 C194.89 223.65, 233.67 175.69, 304.89 99.55 M162.17 264.88 C197.61 217.22, 238.42 171.02, 302.31 99.92 M167.33 265.34 C218.79 204.41, 266.6 152.97, 304.12 102.04 M164.67 263.25 C211.74 210.15, 257.96 153.95, 305.54 104.55 M169.75 261.98 C205.72 227.52, 238.27 183.1, 302.2 106.84 M168.95 264.05 C203.36 226.33, 233.45 191.15, 306.52 110.49 M177.54 262.14 C208.06 228.89, 235.22 198.22, 304.07 110.74 M175.26 265.15 C229.94 201.18, 280.44 140.67, 307.37 115.54 M182.4 261.21 C232.44 208.98, 272.59 157.19, 305.02 120.48 M182.33 264.43 C222.66 216.51, 266.15 168.42, 308.35 118.73 M191.47 258.89 C222.07 219.42, 263.43 179.54, 306.82 127.06 M189.22 259.04 C228.57 219.96, 262.13 181.15, 306.68 128.86 M194.24 258.31 C226.34 221.17, 261.18 183.9, 302.92 136.39 M196.9 258.37 C232.65 221.08, 265.32 186.74, 305.83 132.64 M200.78 255.94 C243.97 210.11, 278.17 168.19, 304.89 137.96 M205.07 257.6 C245.72 211.22, 284.72 166.17, 305.16 139.15 M207.91 254.83 C242.36 215.8, 277.33 173.85, 307.31 143.59 M212.94 254.29 C243.7 218.05, 274.98 182.66, 303.42 146.01 M216.16 251.87 C247.43 216.9, 275.82 180.55, 301.43 154.46 M218.77 251.01 C244.25 225.52, 263.51 201.25, 303.02 153.72 M230.67 249.03 C254.22 219.35, 284.39 182.53, 302.07 162.09 M231.49 245.97 C243.18 227.11, 260.03 206.74, 299.57 166.09 M238.17 240.62 C254.4 228.55, 266.6 208.07, 294.38 180.28 M242.2 239.68 C254.53 225.35, 267.38 209.79, 295.29 177.51 M251.83 236.05 C265.09 218.54, 266.97 213.7, 291.62 192.71 M251.72 233.04 C267.62 216.32, 278.94 200.73, 287.35 191.91" stroke="#ced4da" stroke-width="0.5" fill="none"></path><path d="M223.78 13.8 C237.73 18.2, 251.88 29.46, 263.09 39.56 C274.31 49.67, 283.88 62.17, 291.07 74.45 C298.26 86.72, 304.16 99.93, 306.24 113.21 C308.33 126.49, 306.75 140.87, 303.58 154.14 C300.42 167.41, 294.65 180.53, 287.24 192.83 C279.84 205.12, 270.44 218.24, 259.17 227.9 C247.89 237.56, 233.55 244.87, 219.57 250.8 C205.59 256.73, 191.21 261.95, 175.29 263.47 C159.37 264.99, 140.16 262.54, 124.04 259.93 C107.92 257.32, 92.09 254.18, 78.56 247.79 C65.03 241.4, 53.22 231.55, 42.84 221.6 C32.45 211.66, 23.08 200.48, 16.25 188.12 C9.42 175.75, 4.1 160.44, 1.85 147.41 C-0.4 134.37, -0.04 122.91, 2.73 109.92 C5.51 96.94, 11.31 81.76, 18.52 69.49 C25.73 57.22, 34.43 45.57, 45.98 36.3 C57.54 27.04, 73.23 19.91, 87.85 13.9 C102.46 7.89, 118.17 2.42, 133.68 0.25 C149.18 -1.92, 157.96 -7.13, 180.88 0.88 C203.8 8.9, 251.87 32.13, 271.2 48.34 C290.53 64.55, 298.89 96.81, 296.85 98.16" stroke="#000000" stroke-width="1.5" fill="none" stroke-dasharray="8 9"></path></g><g transform="translate(724 129) rotate(0 148 12.5)"><text x="148" y="18" font-family="Virgil, Segoe UI Emoji" font-size="20px" fill="#000000" text-anchor="middle" style="white-space: pre;" direction="ltr">S3 bucket 1</text></g><g stroke-linecap="round" transform="translate(722 383.5) rotate(0 153 131.5)"><path d="M19.89 64.99 C19.89 64.99, 19.89 64.99, 19.89 64.99 M19.89 64.99 C19.89 64.99, 19.89 64.99, 19.89 64.99 M14.89 80.51 C24.45 67.88, 32.95 54.28, 52.47 33.32 M15.8 76.22 C25.32 63.17, 38.34 52.8, 50.52 34.91 M8.29 87.93 C19.37 73.89, 33.93 66.32, 58.2 32.67 M7.46 89.94 C16.71 80.41, 29.64 66.98, 59.05 29.42 M-0.48 106.67 C25.8 76.79, 51.6 49.77, 68.54 24.48 M1.8 102.77 C19.74 81.51, 39.74 59.9, 72.3 25.09 M2.42 108.4 C23.23 78.01, 52.39 51.65, 80.02 14.05 M6.03 106.97 C23.67 84.08, 43.59 62.18, 83.86 18.12 M7.4 114.9 C39.74 77.7, 71.55 38.48, 95.97 12.49 M4.49 112.78 C25.43 85.97, 48.12 63.1, 92.99 13.95 M2.12 121.45 C24.51 92.18, 45.3 65.62, 97.52 13.42 M2.72 118.43 C35.86 85.4, 63.77 53.08, 99.11 10.73 M0.1 130.11 C27.53 98.33, 53.88 59.33, 104.7 7.51 M3.42 126.09 C34.08 92.25, 61.15 62.57, 106.2 8.37 M4.44 133.74 C38.87 98.45, 71.79 60.73, 109.55 5.95 M1.55 132.46 C39.41 91.89, 75.52 51.31, 111.31 6.7 M1.6 142.23 C33.98 102.48, 69.72 70.98, 118.52 9.99 M1.49 137.66 C40.13 101.22, 76.51 59.69, 118.35 5.61 M1.78 146.28 C25.21 111.99, 60.38 79.34, 122.93 4.43 M0.8 147.62 C29.27 114.7, 56.67 83.21, 123.89 5.14 M-0.04 151.32 C41.62 108.53, 71.09 77.09, 133.32 7.07 M2.61 150.63 C34.84 115.16, 66.9 80.83, 130.91 5.64 M3.92 155.61 C38.26 114.33, 75.92 73.54, 137.83 2.88 M6.73 154.21 C34.4 117.85, 64.87 82.97, 138.47 4.3 M5.95 156.97 C49.52 108.19, 92.59 57.4, 142.45 3.03 M6.27 161.17 C48.73 113.47, 90.22 65.57, 141.79 1.83 M8.9 161.74 C66.77 101.34, 119.44 37.08, 149.95 5.6 M6.43 164.98 C49.59 117.31, 91.99 69.89, 145.99 3.68 M7.95 170.03 C56.36 111.04, 110 54.01, 151.97 3.05 M10.35 169.09 C45.06 125.46, 81.75 86.76, 152.23 3.77 M9.06 174.98 C59.68 125.67, 101.26 75.16, 156.47 6.94 M12.42 173.96 C65.23 112.11, 116.98 51.43, 157.07 5.13 M15.03 180.17 C57.33 128.64, 101.48 83.62, 162.46 6.58 M12.06 176.03 C66.01 117.29, 120.22 56.35, 161.69 5.02 M16.24 184.54 C70.05 117.28, 127.93 49.25, 166.08 1.99 M13.62 182.55 C49.35 139.49, 82.8 101.23, 166.66 5.72 M14.92 189.62 C52.02 140.81, 89.77 94.51, 172.68 7.46 M15.91 186.87 C61.96 133.21, 106.74 82.76, 173.45 3.93 M18.57 188.07 C72.34 131.63, 130.9 64.94, 176.16 2.1 M15.87 189.7 C62.54 135.85, 107.47 84.93, 180.07 3.79 M21.67 192.86 C54.3 152.22, 89.02 113.14, 185.76 6.7 M19.51 193.66 C80.61 125.36, 142.18 52.8, 184.19 2.44 M25.1 194.21 C62.12 145.65, 98.52 100.21, 188.55 5.35 M20.97 195.64 C56.05 160.93, 88.57 120.41, 187.82 6.53 M23.8 201.68 C71.78 136.5, 125.24 77.95, 193.55 9.18 M25.79 198.02 C83.08 134.09, 137.57 70.47, 191.71 6.3 M24.93 203.41 C60.06 159.04, 101.72 114.57, 196.51 4.15 M26.43 202.6 C75.88 149.35, 124.47 95.34, 198.83 6.88 M27.37 208.74 C93.77 135.47, 154.08 64.09, 202.14 9.44 M29.72 206.86 C96.97 128.24, 164.1 51.33, 200.54 7.89 M33.4 207.94 C87.71 139.57, 151.63 72.01, 206.15 8.55 M32.6 210.87 C72.79 161.51, 113.9 115.63, 206.34 10.7 M31.72 211.65 C87.96 145.75, 145.91 79.37, 208.93 9.59 M33.38 214.08 C87.41 151.03, 142.47 88.71, 208.91 10.37 M36.82 214.39 C105.03 139.3, 176.46 56.67, 213.06 12.01 M35.72 215.95 C78.99 167.95, 120.32 119.54, 213.17 12.24 M39.76 221.79 C82.01 165.73, 125.14 119.37, 220.72 13.04 M39.97 219.8 C72.86 180.94, 108.95 140.33, 217.33 15.09 M41.8 220.2 C90.43 166.46, 137.87 109.82, 225.31 12.75 M41.75 223.32 C88.23 168.22, 133.55 116.49, 222.69 15.14 M47.4 224.37 C112.13 148.83, 172.95 74.79, 225.3 15.69 M46.35 224.69 C101.21 164.67, 152.85 104.79, 228.33 16.07 M49.62 226.42 C114.67 146.44, 185.37 67.73, 227.66 18.62 M47.45 226.46 C107.28 157.19, 166.58 84.74, 231.16 18.68 M52.94 232.34 C100.06 170.82, 147.08 114.54, 233.12 20.96 M52.46 230.61 C115.15 153.54, 178.88 80.36, 235.24 21.04 M53.84 234.54 C100.77 182.82, 147.12 129.99, 234.47 24.8 M53.45 231.74 C115.34 161.29, 173.7 91.34, 237.37 23.56 M58.06 235.08 C112.26 173.96, 160.15 115.82, 242.35 23.61 M59.28 236.08 C109.97 175.68, 164.67 114.98, 239.97 25.97 M64.72 233.55 C121.31 168.22, 181.89 97.86, 241.46 24.76 M60.8 236.09 C128.98 162.16, 190.36 89.87, 243.84 27.16 M65.07 237.99 C108.69 183.31, 156.59 129.53, 245.42 28.87 M66.06 238.7 C127.63 169.49, 190.21 99, 247.06 28.14 M66.27 243.62 C134.86 158.45, 207.23 75.47, 253.37 32.4 M68.16 243.07 C124.12 181.37, 180.17 115.66, 250.46 30.47 M72.26 243.01 C124.18 187.45, 173.47 134.11, 252.33 35.47 M71.85 243.47 C119.84 187.2, 171.13 129.71, 253.21 33.78 M77.01 248.52 C122.42 188.96, 173.88 132.77, 254.46 37.48 M73.98 247.61 C141.75 165, 209.2 87.95, 258.93 36.52 M75.94 246.44 C122.78 196.89, 165.2 140.68, 262.47 38.79 M77.5 248.21 C115.21 204.15, 153.32 161.77, 259.05 39.64 M84.43 249.42 C116.15 206.2, 151.23 168.41, 263.22 43.3 M81.8 249.74 C143.68 178.06, 208.4 104.73, 262.81 41.94 M86.61 252.82 C142.4 183.06, 201.32 117.29, 270.17 43.95 M86.46 251.37 C153.46 175.45, 221.94 98.03, 268.56 43.03 M89.97 250.24 C138.87 198.06, 186.76 143.48, 266.64 45.97 M89.88 252.34 C140.07 198.88, 186.63 144.22, 268 47.01 M94.55 255.52 C133.21 211.02, 167.39 170.7, 274.97 49.53 M95.03 254.14 C157.29 183.73, 216.93 115.08, 271.65 50.19 M100.47 254.69 C153.89 195.06, 201.13 136.69, 272.44 50.48 M97.85 254.96 C172.43 172.72, 242.39 93.37, 274.08 53.22 M102.31 258.4 C152.7 197.07, 195.13 146.37, 275.09 53.11 M103.2 257.44 C144.04 209.17, 182.89 165.31, 277.88 57.21 M105.74 256.78 C141.15 214.66, 182.66 172.13, 276.51 59.45 M106.27 256.84 C146.11 208.52, 186.1 162.52, 278.82 61.22 M112.43 257.28 C161.07 200.42, 210.93 144.42, 281.24 63.86 M111.67 258.94 C159.38 205.82, 208.58 149.78, 283.29 62.16 M117.58 258.11 C161.41 203.08, 212.7 144.3, 284.59 64.09 M114.74 258.66 C169.06 193.07, 225.15 127.7, 284.24 64.97 M116.95 263.58 C162.25 213.53, 201.65 162.61, 284.24 71.54 M120.97 260.67 C165.85 202.32, 213.74 148.55, 285.22 69.14 M120.71 260.72 C170.64 206.09, 219.42 152.68, 292.06 71.02 M123.7 261.55 C165.6 218.38, 205.67 173.01, 289.08 72.44 M126.4 262.01 C184.04 197.67, 235.81 136.59, 290.8 73.4 M128.36 262.16 C184.68 198.84, 239.34 135.53, 293.02 77.35 M131.25 265.17 C182.56 208.43, 225.97 158.46, 293.29 79.52 M135.21 261.87 C196.23 193.92, 254.28 124.93, 291.98 79.44 M142.33 264.41 C201.81 197.8, 255.17 130.94, 293.77 86.02 M138.83 262.6 C188.84 208.12, 235.65 152.76, 294.82 85.57 M148 262.85 C191.59 206.27, 239.84 158.79, 292.79 90.16 M145.62 263.42 C204.06 195.36, 263.72 131.21, 296.2 87.85 M150.63 263.53 C178.58 228.73, 213.46 194.24, 295.59 94.68 M149.47 263.44 C199.61 205.28, 250.54 147.42, 297.28 94.03 M152.25 266.64 C189.37 223.37, 223.64 181.88, 295.9 94.03 M153.41 264.88 C200.39 206.7, 249.82 151.9, 299.54 95.56 M160.93 259.76 C195.96 222.93, 230.69 177.05, 300.02 101.46 M162.01 262.34 C218.69 198.62, 271.48 136.81, 300.85 103.69 M162.34 263.96 C206.86 211.01, 253.8 163.89, 302.63 107.27 M166.33 263.15 C205.4 212.89, 249.48 162.59, 301.75 106.55 M167.16 261.27 C196.8 230.05, 228.62 192.93, 305.18 112.88 M169.7 262.69 C208.85 217.04, 249.79 170.66, 302.63 109.1 M176.28 261.37 C217.58 219.25, 256.85 173, 306.18 116.01 M177.21 260.51 C216.33 215.81, 255.4 170.48, 303.59 113.54 M187.17 257.17 C233.53 208.15, 279.16 154.96, 309.06 120.01 M182.88 261.72 C211.8 227.26, 240.82 194.35, 305.6 117.43 M187.04 261.96 C215.47 228.93, 249.32 196.37, 307.22 124.57 M190.87 259.34 C220.9 225.21, 249.94 190.84, 308.54 123.37 M198.8 262.05 C242.87 213.99, 278.84 166.62, 306.9 127.88 M195.8 256.64 C230.65 219.27, 268.33 178.59, 306.89 129.9 M199.8 253.84 C236.94 222.24, 267.88 182.63, 306.56 136.66 M201.14 258.95 C243.55 214.29, 285.38 165.01, 304.14 139.72 M212.87 252.46 C243.52 213.78, 283.65 171.33, 303.22 147.16 M209.67 256.99 C231.27 231.86, 254.21 203.57, 306.54 143.32 M218.77 255.63 C238.94 224.72, 259.68 205.03, 306.27 151.93 M219.28 253.3 C248.32 218.25, 280.83 182.43, 304.25 152.39 M224.59 250.8 C252.05 223.35, 273.26 199.7, 301.82 155.08 M226.74 248.06 C255.14 216.83, 279.64 187.07, 303.1 157.63 M234.87 241.04 C264.1 214.76, 287.39 185.99, 295.93 174.01 M238.22 239.54 C251.74 226.77, 264.35 211.03, 299.17 169.2 M244.65 238.91 C261.92 219.93, 273.41 212.04, 294.06 181.35 M249.67 236.64 C263.65 215.92, 281.53 199.54, 293.62 185.25" stroke="#ced4da" stroke-width="0.5" fill="none"></path><path d="M90.33 10.47 C102.8 3.49, 119.41 2.71, 134.88 1.45 C150.35 0.19, 167.71 0.64, 183.14 2.91 C198.56 5.17, 213.54 8.44, 227.43 15.05 C241.31 21.66, 255.84 32.51, 266.44 42.57 C277.05 52.64, 284.46 62.91, 291.07 75.43 C297.68 87.95, 303.96 104.18, 306.09 117.71 C308.21 131.23, 307.23 143.64, 303.83 156.57 C300.43 169.5, 293.75 183, 285.67 195.27 C277.6 207.54, 266.93 220.76, 255.37 230.17 C243.81 239.58, 230.77 246.52, 216.3 251.74 C201.82 256.95, 184.27 259.96, 168.52 261.46 C152.77 262.96, 137.13 263.05, 121.8 260.72 C106.46 258.39, 90.05 254.11, 76.51 247.48 C62.98 240.86, 50.94 231.2, 40.59 220.96 C30.24 210.72, 21.21 198.58, 14.43 186.04 C7.66 173.5, 2.08 159.16, -0.05 145.7 C-2.18 132.25, -1.67 118.79, 1.67 105.31 C5.02 91.83, 12.18 76.54, 20.01 64.84 C27.84 53.15, 31.41 45.85, 48.64 35.13 C65.87 24.41, 104.63 6.18, 123.4 0.52 C142.16 -5.13, 160.22 -1.39, 161.23 1.21" stroke="#000000" stroke-width="1.5" fill="none" stroke-dasharray="8 9"></path></g><g transform="translate(727 502.5) rotate(0 148 12.5)"><text x="148" y="18" font-family="Virgil, Segoe UI Emoji" font-size="20px" fill="#000000" text-anchor="middle" style="white-space: pre;" direction="ltr">S3 bucket 2</text></g><g stroke-linecap="round" transform="translate(796 51) rotate(0 67.5 30)"><path d="M0.08 -2.68 C30.47 -1.91, 63.87 4.31, 132.5 2.44 M133.5 -1.35 C133.89 16.09, 138.28 26.2, 131.71 58.36 M131.82 63.63 C87.41 63.74, 43.86 63.67, -3.05 60.68 M-1.8 59.45 C-3.35 42.23, -0.64 25.68, 1.44 2.58" stroke="#000000" stroke-width="1.5" fill="none" stroke-dasharray="8 9"></path></g><g transform="translate(801 56) rotate(0 62.5 25)"><text x="62.5" y="18" font-family="Virgil, Segoe UI Emoji" font-size="20px" fill="#000000" text-anchor="middle" style="white-space: pre;" direction="ltr">backup </text><text x="62.5" y="43" font-family="Virgil, Segoe UI Emoji" font-size="20px" fill="#000000" text-anchor="middle" style="white-space: pre;" direction="ltr">definition 1</text></g><g stroke-linecap="round" transform="translate(803.5 173) rotate(0 67.5 30)"><path d="M-3.27 0.11 C37.52 -4.58, 68.82 2.15, 137.16 3.03 M133.75 -1.17 C134.58 12.26, 135.32 31.38, 134.49 63.19 M133.87 60.3 C96.27 59.13, 60.98 59.99, 1.14 59.15 M3.98 57.48 C0.54 41.96, -0.67 29.62, 3.71 1.45" stroke="#000000" stroke-width="1.5" fill="none" stroke-dasharray="8 9"></path></g><g transform="translate(808.5 178) rotate(0 62.5 25)"><text x="62.5" y="18" font-family="Virgil, Segoe UI Emoji" font-size="20px" fill="#000000" text-anchor="middle" style="white-space: pre;" direction="ltr">backup </text><text x="62.5" y="43" font-family="Virgil, Segoe UI Emoji" font-size="20px" fill="#000000" text-anchor="middle" style="white-space: pre;" direction="ltr">definition 2</text></g><g stroke-linecap="round" transform="translate(810.5 426) rotate(0 67.5 30)"><path d="M-3.3 0.14 C38.72 2.44, 69.68 -1.83, 136.76 -1.96 M134.47 -1.06 C133.14 12.04, 138.68 32.93, 136.37 57.16 M134.56 59.54 C104.95 56.1, 72.15 57.03, 2.72 63.11 M-1.1 63.03 C2.27 38.85, -0.36 22.91, 3.09 0.38" stroke="#000000" stroke-width="1.5" fill="none" stroke-dasharray="8 9"></path></g><g transform="translate(815.5 431) rotate(0 62.5 25)"><text x="62.5" y="18" font-family="Virgil, Segoe UI Emoji" font-size="20px" fill="#000000" text-anchor="middle" style="white-space: pre;" direction="ltr">backup </text><text x="62.5" y="43" font-family="Virgil, Segoe UI Emoji" font-size="20px" fill="#000000" text-anchor="middle" style="white-space: pre;" direction="ltr">definition 3</text></g><g stroke-linecap="round"><g transform="translate(521 314) rotate(0 144.88192141070965 -49.53281980976462)"><path d="M0.83 0.57 C49.78 -15.73, 243.47 -83.82, 291.93 -99.64 M-2.17 -1.59 C46.48 -17.49, 240.59 -81.3, 289.12 -97.44" stroke="#000000" stroke-width="1" fill="none"></path></g><g transform="translate(521 314) rotate(0 144.88192141070965 -49.53281980976462)"><path d="M266.38 -80.38 C267.6 -85.42, 280.73 -87.32, 292.23 -95.79 M264.62 -80.07 C271.52 -82.91, 279.54 -87.54, 287.5 -96.63" stroke="#000000" stroke-width="1" fill="none"></path></g><g transform="translate(521 314) rotate(0 144.88192141070965 -49.53281980976462)"><path d="M259.95 -99.87 C262.43 -100.34, 277.09 -97.64, 292.23 -95.79 M258.18 -99.55 C267.05 -97.17, 276.76 -96.69, 287.5 -96.63" stroke="#000000" stroke-width="1" fill="none"></path></g></g><g stroke-linecap="round"><g transform="translate(522 278) rotate(0 140.83840383231637 -87.18861025512219)"><path d="M-1.5 0.01 C44.91 -28.67, 230.73 -141.67, 277.91 -170.65 M2.88 -2.45 C50.22 -32.01, 236.88 -146.26, 283.18 -174.39" stroke="#000000" stroke-width="1" fill="none"></path></g><g transform="translate(522 278) rotate(0 140.83840383231637 -87.18861025512219)"><path d="M264.48 -153.92 C272.79 -154.98, 273.41 -161.76, 279.7 -173.76 M265.83 -150.98 C271.31 -158.79, 277.55 -166.09, 283.91 -175.76" stroke="#000000" stroke-width="1" fill="none"></path></g><g transform="translate(522 278) rotate(0 140.83840383231637 -87.18861025512219)"><path d="M253.79 -171.44 C265.27 -167.5, 268.87 -169.39, 279.7 -173.76 M255.14 -168.5 C264.51 -170.41, 274.32 -171.84, 283.91 -175.76" stroke="#000000" stroke-width="1" fill="none"></path></g></g><g stroke-linecap="round"><g transform="translate(527 378) rotate(0 150.90039700046185 40.96314705431462)"><path d="M-0.73 0.86 C49.98 14.44, 252.73 69.43, 302.53 83.07 M4.07 -1.14 C54.8 11.52, 251.71 65.98, 301.66 79.18" stroke="#000000" stroke-width="1" fill="none"></path></g><g transform="translate(527 378) rotate(0 150.90039700046185 40.96314705431462)"><path d="M273 85.32 C281.8 78.46, 288.35 82.08, 302.59 82.36 M270.02 80.97 C281.07 80.42, 291.31 79.21, 301.21 78.09" stroke="#000000" stroke-width="1" fill="none"></path></g><g transform="translate(527 378) rotate(0 150.90039700046185 40.96314705431462)"><path d="M278.36 65.52 C286.12 63.34, 291.39 71.66, 302.59 82.36 M275.39 61.16 C285.07 67.11, 293.56 72.37, 301.21 78.09" stroke="#000000" stroke-width="1" fill="none"></path></g></g><g stroke-linecap="round" transform="translate(10 276) rotate(0 80.5 60.5)"><path d="M0 0 C0 0, 0 0, 0 0 M0 0 C0 0, 0 0, 0 0 M-0.71 6.93 C0.06 3.87, 2.15 4.34, 6.46 0.59 M-0.09 6.03 C0.65 5.24, 2.72 3.01, 5.22 0.53 M0.05 9.23 C4.43 4.91, 8.73 2.04, 11.24 -2.49 M-0.89 11.36 C4.33 8.01, 6.92 3.89, 11.76 -0.17 M-2.06 14.51 C3.47 14.65, 3.78 6.76, 12.83 0.14 M-0.65 18.81 C4.68 15.29, 7.06 10.41, 16.38 0.41 M-3.53 20.33 C5.25 14.75, 9.3 9.4, 19.38 2.43 M-1.4 25.36 C4.61 20.32, 8.21 14.36, 21.96 -1.47 M2.44 26.71 C7.31 20.77, 13.29 12.61, 23.87 -2.18 M1.31 29.33 C8.56 23.49, 16.33 12.53, 26.03 -0.59 M-0.28 37.39 C11.97 25.31, 20.81 19.49, 28.6 2.92 M1.67 38.2 C7.76 27.53, 14.47 21.44, 30.13 0.42 M-2.98 39.64 C14.01 30.26, 26.72 17, 33.84 1.1 M-1.47 43.67 C14.48 28.38, 26.53 13.96, 35.92 2.01 M3.67 48.81 C15.34 40.58, 19.66 20.97, 44.82 2.8 M-1.47 48.7 C15.44 32.15, 30.48 11.02, 43.62 -1.47 M3.95 57.24 C23 36.95, 36.51 13.74, 44.23 -2.26 M1.84 55.17 C13.61 37.13, 31.09 19.53, 47.79 1.13 M1.63 58.6 C11.22 48.95, 20.65 32.32, 55.21 -0.85 M2 62.77 C20.19 41.36, 39.96 16.5, 51.81 0.63 M2.25 68.83 C16.51 47.43, 33.42 27.77, 57.87 4.1 M-0.3 68.59 C20.41 46.88, 39.16 22.66, 59.67 -1.6 M-3.05 74.65 C19.43 53.59, 35.16 32.87, 60.29 -2.35 M1.87 74.27 C16.26 56.34, 35.38 36.29, 62.39 1.19 M2.24 78.09 C20.67 54.47, 47.81 29.74, 70.99 1.19 M0.87 81.13 C29.57 48.38, 57.13 17.46, 69.89 0.09 M2.34 85.45 C26.27 59.86, 54.27 33.13, 73.96 -3.38 M0.22 85.76 C14.04 66.94, 29.66 48.22, 73.36 1.32 M1.68 91.59 C28.19 60.61, 51.19 29.96, 81.16 -1.36 M-1.56 90.93 C25.57 64.49, 48.03 38.19, 81.12 1.19 M-0.76 100.89 C29.35 62.36, 56.76 31.82, 83.51 2.99 M-1.2 97.21 C31.32 60.3, 61.51 27.79, 85.02 0.87 M-3.66 99.77 C30.64 71.31, 60.54 33.4, 87.37 2.7 M0.47 102.07 C28.93 74.17, 54.98 41.48, 88.32 1.38 M-3.57 109.2 C21.61 83.9, 43.17 62.88, 97.58 0.32 M1.66 111.05 C26.41 80.44, 52.24 48.46, 96.02 -1.65 M3.39 117.68 C38.61 76.03, 70.06 30.55, 97.95 0.24 M1.34 117.32 C30.12 79.79, 62.94 48.6, 98.78 1.01 M2.74 120.77 C38.3 71.18, 79.25 29.57, 106.22 -3.18 M-0.19 119.87 C30.36 93.5, 56.45 61.68, 107.29 -1.04 M2.59 123 C32.09 92.92, 58.84 60.15, 114.61 -1.23 M6.99 120.08 C31.68 93.77, 53.72 65.03, 112.1 1.13 M13.59 124.03 C43.66 79.26, 74.8 41.85, 120.16 2.05 M9.8 122.41 C40.25 84.63, 68.11 50.48, 117.41 -0.66 M13.85 124.02 C36.52 93.17, 68.62 65.99, 124.46 2.41 M16.42 122.49 C56.31 75.49, 93.32 29.52, 120.17 -0.53 M22.71 117.92 C54.02 83.3, 89.52 44.24, 125.49 -0.07 M21.43 119.97 C53.89 84.76, 83.24 52.22, 125.27 0.56 M25.21 119.73 C58.14 95.56, 79.6 63.57, 131.95 3.92 M25.68 121.43 C49.23 92.96, 74.13 71.07, 131.23 -1.55 M35.09 118.71 C66.51 81.74, 103.1 46.31, 135.72 1.29 M30.68 119.23 C59.48 91.89, 82.56 65.01, 138.09 0.64 M35.31 119.69 C72.16 79.75, 113.77 41.28, 142.93 0.68 M38.42 122.41 C68.42 85.17, 97.6 51.62, 141.79 1.18 M40.4 124.01 C82.87 71.36, 124.47 29.4, 146.38 0.81 M41.17 120.29 C66.69 93.15, 91.14 65.48, 150.05 -0.46 M48.19 118.08 C71.43 90.27, 94.22 63.1, 156.61 2.68 M48.56 121.62 C82.95 83.58, 114.8 44.76, 152.72 -0.54 M55.67 117.84 C91.11 78.03, 130.21 35.23, 158.37 1.82 M54.81 121.7 C80.84 89.6, 109.95 54.57, 157.66 -0.11 M57.26 117.74 C83.77 91.44, 111.66 58.34, 164.28 2.06 M60.36 121.97 C94.97 75.53, 130.77 33.89, 163.84 3.29 M65.34 123.05 C85.97 89.4, 115.72 58.31, 163.4 7.8 M63.85 120.94 C88.75 93.68, 112.65 64.24, 161.17 6.57 M69.28 122.08 C98.99 91.8, 131.55 54.29, 159.37 11.89 M68.39 121.02 C102.6 80.12, 138.9 43.18, 164.11 15.63 M71.88 118.42 C91.03 102.94, 111.94 81.13, 159.76 20.28 M73.51 123.43 C108.98 81.22, 144.31 39.37, 164.33 20.56 M80.41 119.19 C99.98 98, 114.11 84.25, 163.73 27.97 M81.51 123.04 C100.76 96.49, 122.03 71.82, 161.8 26.27 M87.12 119.31 C102 102.91, 125.77 75.93, 160.41 31.95 M85.32 123.28 C99.28 103.38, 117.44 82.31, 162.51 32.06 M92.19 121.74 C112.9 94.89, 134.94 71.78, 165.4 39.54 M90.91 122.98 C109.89 96.81, 130.67 78.22, 162.35 38.53 M92.29 121.73 C115.91 94.1, 134.88 70.02, 163.1 41.35 M97.13 123.28 C114.44 102.81, 129.14 81.94, 160.81 43.2 M103.52 119.05 C122.48 93.73, 140.75 78, 162.5 47.75 M102.11 122.48 C124.22 91.34, 148.72 67.25, 164.17 51.62 M109.97 118.3 C129.2 99.3, 141.74 81.34, 164.93 53.43 M107.1 122.93 C121.1 104.47, 136.59 87.11, 164.61 56.54 M110.67 125.07 C132.51 99.39, 145.39 82.6, 162.47 58.34 M110.9 121.87 C130.35 102.97, 145.77 85.05, 161.97 61.47 M116.13 122.28 C133.23 104.29, 153.75 79.84, 166.38 68 M117.69 122.39 C128.4 105.44, 141.55 93.68, 163.62 67.61 M123.31 122.35 C134.35 102.78, 154.55 86.94, 165.5 74.45 M123.42 120.17 C137.67 105.76, 149.72 92.31, 162.14 73.45 M128.12 119.53 C134.82 111.57, 144.41 95.64, 166 76.75 M127.68 122.51 C138.29 110.76, 149.72 98.17, 162.53 81.87 M132.46 118.09 C141.75 105.94, 152.78 91.03, 159.14 85.56 M132.1 123.07 C142.6 107.09, 155.73 93.52, 161.33 87.33 M140.65 124.58 C149.82 108.53, 153.42 99.33, 159.67 96 M140.18 120.85 C144 113.38, 150.27 109.71, 164.35 91.44 M142.52 120.09 C146.61 114.27, 157.19 108.61, 162.3 96.05 M143.7 122.97 C151.42 112.48, 157.72 102.56, 162.54 97.86 M149.82 124.53 C154.53 116.86, 156.47 107.39, 164.04 103.44 M150.59 119.64 C153.19 114.38, 160.11 110.51, 161.73 103.91 M155 120.89 C157.98 119.53, 160.4 116.2, 163.63 113.16 M155 122.28 C156.75 118.6, 157.66 115.35, 162.19 111.54 M159.87 120.84 C160.15 120.76, 161.12 118.83, 162.83 117 M159.26 121.5 C160.4 119.91, 161.44 119, 162.96 118.04" stroke="#40c057" stroke-width="0.5" fill="none"></path><path d="M-1.61 3.28 C50.38 -4.77, 101.71 -4.4, 159.87 2.95 M0.9 1.79 C41.75 -3.92, 82.68 -3.5, 162.19 -0.01 M160.28 1.97 C163.42 30.36, 159.14 55.59, 164.64 121.11 M161.2 -1.05 C160.73 25.63, 163.71 48.52, 161.72 122.72 M163.14 120.07 C116.14 124.61, 81.24 122.96, -2.52 117.03 M161.38 119.17 C123.4 122.84, 86.51 120.45, 0.94 121.89 M1.33 122.32 C-0.54 78.93, 0.91 33.07, 2.26 -2.71 M1.96 120.03 C-1.7 94.95, -3.39 68.03, -1.83 0.59" stroke="#000000" stroke-width="1" fill="none"></path></g><g transform="translate(15 324) rotate(0 75.5 12.5)"><text x="75.5" y="18" font-family="Virgil, Segoe UI Emoji" font-size="20px" fill="#000000" text-anchor="middle" style="white-space: pre;" direction="ltr">Prometheus</text></g><g stroke-linecap="round" transform="translate(426 319) rotate(0 5.5 12)"><path d="M0 0 C0 0, 0 0, 0 0 M0 0 C0 0, 0 0, 0 0 M0.76 4.95 C2.2 5.45, 2.72 2.55, 6.1 0.66 M-0.52 6.08 C1.38 5.39, 2.94 3.45, 5.19 1.12 M2.91 13.79 C0.93 11.73, 3.69 8.65, 10.52 0.85 M0.3 12.15 C3.36 10.9, 6.12 6.52, 9.37 -1.49 M1.31 17.44 C7.14 11.75, 10.54 4.51, 16.78 4.13 M-0.05 18.88 C3.32 12.44, 7.27 10.42, 12.91 2.37 M-0.75 26.22 C-0.23 22.1, 2.87 20.94, 16.19 9.92 M1.79 23.4 C2.05 19.24, 6.44 16.73, 15.67 9.33 M4.44 23.92 C4.76 21.84, 9.55 20.33, 15.28 15.77 M4.05 24.25 C8.51 21.24, 10.21 18.03, 14.63 14.78 M10.33 24.1 C12.38 22.49, 12.91 21.72, 14.04 20.37 M10.83 24.3 C11.64 23.29, 12.91 22.03, 13.58 21" stroke="#40c057" stroke-width="0.5" fill="none"></path><path d="M1.26 1.09 C2.71 0.41, 5.7 -0.87, 12.93 -0.89 M-0.03 1.04 C3.65 -1.02, 4.38 0.43, 11.81 0.75 M10.56 1.55 C15.29 9.66, 9.14 21.01, 8.33 27.82 M12.34 1.87 C12.93 5.79, 12.07 11.37, 9.76 24.48 M11.67 22.48 C7.68 25.05, 3.8 24.49, 1 22.02 M10.35 23.81 C8.88 23.43, 5.19 24.66, -0.19 24.63 M3.62 24.62 C3.27 20.73, -2.77 10.42, 1.61 -1.17 M0.74 24.6 C-0.92 17.52, -1.66 8.6, 1.96 0.57" stroke="#000000" stroke-width="1" fill="none"></path></g><g stroke-linecap="round"><g transform="translate(180.08011449441312 339.95859032038334) rotate(0 124.36795360930262 -3.3477735038274545)"><path d="M-0.31 1.09 C41.43 0.1, 211.21 -6.53, 252.66 -7.78 M-3.92 -0.79 C37.49 -1.11, 210.3 -2.33, 251.9 -4.06" stroke="#000000" stroke-width="1" fill="none"></path></g><g transform="translate(180.08011449441312 339.95859032038334) rotate(0 124.36795360930262 -3.3477735038274545)"><path d="M225.49 10.71 C234.95 0.5, 247.51 -4.05, 255.72 -5.22 M225.8 8.74 C231.39 4.25, 238.84 -1.31, 252.38 -2.98" stroke="#000000" stroke-width="1" fill="none"></path></g><g transform="translate(180.08011449441312 339.95859032038334) rotate(0 124.36795360930262 -3.3477735038274545)"><path d="M225.05 -9.8 C234.4 -12.23, 247.13 -8.99, 255.72 -5.22 M225.37 -11.77 C231.46 -10.13, 239.04 -9.55, 252.38 -2.98" stroke="#000000" stroke-width="1" fill="none"></path></g></g><g stroke-linecap="round" transform="translate(450 83) rotate(0 43 34)"><path d="M0.27 34.69 C0.27 34.69, 0.27 34.69, 0.27 34.69 M0.27 34.69 C0.27 34.69, 0.27 34.69, 0.27 34.69 M4.49 33.74 C10.35 35.36, 12.38 25.22, 15.99 20.95 M1.72 37.64 C7.82 33.14, 14.86 23.8, 18.31 20.51 M5.39 41.16 C13.99 33.99, 23.35 22.6, 31.22 3.68 M5.52 39.69 C10.92 34.25, 18.33 25.63, 33.32 7.81 M5.67 45.36 C14.14 34.95, 22.54 25.73, 44.44 -2.41 M10.94 42.79 C19.98 31.57, 29.08 20.99, 43.86 2.82 M9.04 47.4 C26.33 26.7, 40.9 15.51, 51.21 6.78 M11.56 44.69 C23.74 29.39, 37.62 13.83, 48.06 4.74 M19.01 50.44 C26.63 33.66, 46.84 13.94, 54.35 8.37 M16.04 46.53 C26.71 34.51, 36.01 22.33, 50.15 5.43 M21.09 48.97 C28.84 38.27, 33.02 33.97, 57.06 5.85 M20.91 49.48 C32.05 34.87, 40.7 20.45, 56.27 10.25 M23.1 48.8 C31.74 44.4, 38.71 34.12, 57.09 13.83 M21.52 50.07 C37.66 38.15, 48.41 24.28, 59.24 10.04 M23.41 55.08 C40.23 37.55, 48.54 28.99, 57 11.73 M26.9 55.64 C40.35 40.86, 53.24 25.7, 59.42 14.29 M25.16 53.57 C37.06 42.24, 53.24 25.58, 66.37 17.57 M28.59 56.9 C36.32 47.51, 44.73 38.95, 61.59 16.29 M27.86 63.33 C36.84 50.78, 46.55 37.63, 64.06 17.71 M30.91 60.08 C39.78 50.6, 47.2 37.37, 67.82 18.18 M39 65.02 C43.6 46.93, 57.19 35.78, 73.14 23.81 M37.11 62.58 C42.99 52.11, 50.76 40.82, 71 19.4 M41.59 61.67 C46.02 56.7, 53.79 44.56, 72.5 21.68 M39.65 65.03 C47.92 54.15, 56.78 44.16, 73.1 24.78 M40.44 67.84 C50.47 55.49, 69.18 39.78, 75.03 24.4 M41 67.99 C53.14 53.11, 64.78 37.12, 77.97 25.17 M46.37 65.7 C56.93 58.17, 58.07 53.12, 79.26 29.17 M44.55 67.26 C53.92 61.81, 60.47 52.33, 77.62 29.54 M57.66 57.93 C65.47 47.55, 76.05 38.81, 80.27 34.29 M62.62 54.22 C65.32 52.13, 69.47 48.15, 81.69 33.42 M76.67 44.22 C79.03 39.73, 81.15 36.43, 86.73 33.55 M78.37 41.74 C79.99 41.15, 81.84 40.15, 85.9 35.26" stroke="#fab005" stroke-width="0.5" fill="none"></path><path d="M46.18 -3.13 C57.83 14.67, 75.73 27.44, 84.42 37.5 M45.15 -1.85 C58.23 14.21, 73.08 22.11, 84.55 34.95 M85.51 32.16 C73.93 43.67, 54.77 62.61, 44.9 64.81 M86.48 35.39 C70.4 45.44, 57.07 56.15, 42.33 69.73 M45.15 69.45 C25.81 59.46, 13.35 43.69, 3.33 37.36 M45.81 69.01 C33.6 60.02, 22.62 48.89, -1.85 35.99 M2.92 33.64 C18.88 21.78, 34.76 5.05, 42.15 2.06 M1.98 36.66 C13.38 22.11, 25.44 14.28, 46 -0.06" stroke="#000000" stroke-width="1" fill="none"></path></g><g transform="translate(455 104.5) rotate(0 38 12.5)"><text x="38" y="18" font-family="Virgil, Segoe UI Emoji" font-size="20px" fill="#000000" text-anchor="middle" style="white-space: pre;" direction="ltr">User</text></g><g stroke-linecap="round"><g transform="translate(491.9200008695601 156.74149480774366) rotate(0 -0.48502596127531206 55.94399858035463)"><path d="M0.27 -1.93 C0.31 16.87, 1.88 94.66, 2.07 113.81 M-3.03 3.2 C-3.42 21.08, -0.03 90.77, 0.45 109.65" stroke="#000000" stroke-width="1" fill="none"></path></g><g transform="translate(491.9200008695601 156.74149480774366) rotate(0 -0.48502596127531206 55.94399858035463)"><path d="M-13.6 83.48 C-4.31 92.62, -1.37 101.67, 2.73 112.55 M-12.33 83.8 C-7.23 89.87, -2.9 100.03, -1.06 110.93" stroke="#000000" stroke-width="1" fill="none"></path></g><g transform="translate(491.9200008695601 156.74149480774366) rotate(0 -0.48502596127531206 55.94399858035463)"><path d="M6.9 82.72 C8.74 92.18, 4.21 101.5, 2.73 112.55 M8.18 83.04 C7.25 89.09, 5.58 99.47, -1.06 110.93" stroke="#000000" stroke-width="1" fill="none"></path></g></g><g transform="translate(334 170) rotate(0 125 12.5)"><text x="0" y="18" font-family="Virgil, Segoe UI Emoji" font-size="20px" fill="#000000" text-anchor="start" style="white-space: pre;" direction="ltr">Request backup download</text></g><g transform="translate(191 300) rotate(0 111 12.5)"><text x="0" y="18" font-family="Virgil, Segoe UI Emoji" font-size="20px" fill="#000000" text-anchor="start" style="white-space: pre;" direction="ltr">Get backup statistics</text></g></svg>